<?xml version="1.0" encoding="UTF-8" standalone="no"?>
<!-- Created with Inkscape (http://www.inkscape.org/) -->

<svg
   version="1.1"
   id="svg2"
   width="200"
   height="100"
   viewBox="0 0 1900 400.00001"
   sodipodi:docname="dr-logo.svg"
   inkscape:version="1.1.2 (b8e25be833, 2022-02-05)"
   xmlns:inkscape="http://www.inkscape.org/namespaces/inkscape"
   xmlns:sodipodi="http://sodipodi.sourceforge.net/DTD/sodipodi-0.dtd"
   xmlns="http://www.w3.org/2000/svg"
   xmlns:svg="http://www.w3.org/2000/svg">
  <defs
     id="defs6" />
  <sodipodi:namedview
     id="namedview4"
     pagecolor="#ffffff"
     bordercolor="#666666"
     borderopacity="1.0"
     inkscape:pageshadow="2"
     inkscape:pageopacity="0.0"
     inkscape:pagecheckerboard="0"
     showgrid="false"
     width="400px"
     inkscape:snap-bbox="true"
     inkscape:bbox-paths="true"
     inkscape:bbox-nodes="true"
     inkscape:snap-bbox-edge-midpoints="true"
     inkscape:snap-bbox-midpoints="true"
     inkscape:object-paths="true"
     inkscape:snap-intersection-paths="true"
     inkscape:snap-smooth-nodes="true"
     inkscape:snap-midpoints="true"
     inkscape:snap-object-midpoints="true"
     inkscape:snap-center="true"
     inkscape:snap-text-baseline="true"
     inkscape:snap-page="true"
     inkscape:zoom="0.45254834"
     inkscape:cx="789.97086"
     inkscape:cy="315.98834"
     inkscape:window-width="1920"
     inkscape:window-height="1009"
     inkscape:window-x="-8"
     inkscape:window-y="-8"
     inkscape:window-maximized="1"
     inkscape:current-layer="g3666" />
  <g
     inkscape:groupmode="layer"
     inkscape:label="Image"
     id="g8">
    <g
       id="g1169"
       transform="translate(-1175.8203,-47.487366)">
      <g
         id="g2888"
         transform="translate(189.23955,541.37863)">
        <g
           id="g3666"
           transform="translate(-4.4067593)">
          <path
             sodipodi:type="star"
             style="fill:none;fill-opacity:1;stroke:#5a25e7;stroke-width:55.2008;stroke-miterlimit:4;stroke-dasharray:none;stroke-opacity:1"
             id="path873-8-6"
             inkscape:flatsided="true"
             sodipodi:sides="6"
             sodipodi:cx="300"
             sodipodi:cy="300"
             sodipodi:r1="249.24899"
             sodipodi:r2="215.85602"
             sodipodi:arg1="1.5707963"
             sodipodi:arg2="2.0943951"
             inkscape:rounded="0"
             inkscape:randomized="0"
             transform="matrix(0.63404838,0,0,0.63404838,980.85188,-484.10578)"
             d="M 300.00001,549.24899 84.144044,424.6245 84.144037,175.37551 299.99999,50.751007 515.85596,175.3755 l 0,249.24899 z" />
          <path
             sodipodi:type="star"
             style="fill:none;fill-opacity:1;stroke:#5a25e7;stroke-width:90.6006;stroke-miterlimit:4;stroke-dasharray:none;stroke-opacity:1"
             id="path873-8-8-9"
             inkscape:flatsided="true"
             sodipodi:sides="6"
             sodipodi:cx="300"
             sodipodi:cy="300"
             sodipodi:r1="249.24899"
             sodipodi:r2="215.85602"
             sodipodi:arg1="1.5707963"
             sodipodi:arg2="2.0943951"
             inkscape:rounded="0"
             inkscape:randomized="0"
             transform="matrix(0.38631073,0,0,0.38631073,1055.1732,-409.78448)"
             d="M 300.00001,549.24899 84.144044,424.6245 84.144037,175.37551 299.99999,50.751007 515.85596,175.3755 l 0,249.24899 z" />
          <g
             aria-label="DecisionRules"
             id="text35489-6"
             style="font-size:226.667px;line-height:1.25;fill:#333333">
            <path
               d="m 1360.4296,-210.81779 h 55.0801 c 54.6267,0 89.9868,-35.58672 89.9868,-84.5468 0,-48.96007 -35.1334,-84.32013 -89.9868,-84.32013 h -55.0801 z m 35.1334,-30.60005 v -107.66683 h 20.8534 c 32.8667,0 53.9467,20.85337 53.9467,53.72008 0,32.86672 -21.08,53.94675 -53.9467,53.94675 z"
               style="font-weight:bold;font-family:'Plus Jakarta Display';-inkscape-font-specification:'Plus Jakarta Display Bold'"
               id="path828" />
            <path
               d="m 1641.9502,-276.32456 c 0,-34.22672 -26.7467,-60.97342 -61.4268,-60.97342 -35.36,0 -62.5601,27.4267 -62.5601,64.37343 0,35.81338 25.6134,64.82676 64.8268,64.82676 25.3867,0 45.7867,-12.01335 53.2667,-30.14671 l -27.2,-12.92002 c -4.76,8.38668 -13.6,13.60002 -25.6134,13.60002 -16.7733,0 -27.88,-9.97335 -29.92,-25.61337 h 87.0401 c 1.1333,-3.40001 1.5867,-8.16002 1.5867,-13.14669 z m -87.9468,-11.78668 c 3.4,-14.28003 13.1467,-21.9867 26.52,-21.9867 14.0534,0 24.0267,8.84001 25.3867,21.9867 z"
               style="font-weight:bold;font-family:'Plus Jakarta Display';-inkscape-font-specification:'Plus Jakarta Display Bold'"
               id="path830" />
            <path
               d="m 1714.2569,-208.09779 c 28.1067,0 50.7734,-15.86669 57.8001,-37.85339 l -29.0134,-14.28002 c -3.8534,13.14668 -14.7334,21.53336 -28.7867,21.53336 -17.9067,0 -30.3734,-14.05335 -30.3734,-34.00005 0,-19.94669 12.4667,-34.00005 30.3734,-34.00005 13.8267,0 24.9333,8.38668 28.7867,21.53337 l 29.0134,-14.05336 c -7.4801,-22.89337 -30.1468,-38.08005 -57.8001,-38.08005 -37.4001,0 -65.5068,27.65337 -65.5068,64.37343 0,36.94672 28.3334,64.82676 65.5068,64.82676 z"
               style="font-weight:bold;font-family:'Plus Jakarta Display';-inkscape-font-specification:'Plus Jakarta Display Bold'"
               id="path832" />
            <path
               d="m 1785.6568,-345.68466 h 34.0001 v -34.00006 h -34.0001 z m 0,134.86687 h 34.0001 v -123.76019 h -34.0001 z"
               style="font-weight:bold;font-family:'Plus Jakarta Display';-inkscape-font-specification:'Plus Jakarta Display Bold'"
               id="path834" />
            <path
               d="m 1892.417,-208.09779 c 29.6934,0 50.3201,-15.64002 50.3201,-38.53339 0,-17.68003 -11.7867,-30.37338 -33.7734,-36.26672 l -22.8934,-6.12001 c -4.08,-1.13334 -12.6933,-3.40001 -12.6933,-10.88002 0,-6.34667 5.8933,-10.20001 15.8667,-10.20001 13.3733,0 24.0267,6.34667 28.1067,17.00002 l 25.3867,-11.78668 c -7.9334,-20.17337 -28.1067,-32.41338 -53.4934,-32.41338 -29.0134,0 -48.7335,15.64002 -48.7335,38.53339 0,17.00002 10.8801,30.14671 33.3201,36.04005 l 21.76,5.66668 c 4.3067,1.13333 14.2801,3.62667 14.2801,11.78668 0,6.80001 -6.8001,11.10668 -17.4534,11.10668 -14.0534,0 -25.16,-7.48001 -31.7334,-21.3067 l -25.16,11.78669 c 7.7067,22.44003 29.92,35.58672 56.8934,35.58672 z"
               style="font-weight:bold;font-family:'Plus Jakarta Display';-inkscape-font-specification:'Plus Jakarta Display Bold'"
               id="path836" />
            <path
               d="m 1958.6039,-345.68466 h 34 v -34.00006 h -34 z m 0,134.86687 h 34 v -123.76019 h -34 z"
               style="font-weight:bold;font-family:'Plus Jakarta Display';-inkscape-font-specification:'Plus Jakarta Display Bold'"
               id="path838" />
            <path
               d="m 2074.6574,-208.09779 c 36.72,0 66.1867,-27.20004 66.1867,-64.6001 0,-37.40005 -29.4667,-64.60009 -66.1867,-64.60009 -36.7201,0 -66.1868,27.20004 -66.1868,64.60009 0,37.40006 29.4667,64.6001 66.1868,64.6001 z m 0,-30.60005 c -18.5867,0 -31.0534,-14.05335 -31.0534,-34.00005 0,-19.72003 12.4667,-34.00005 31.0534,-34.00005 18.5867,0 31.0533,14.28002 31.0533,34.00005 0,19.9467 -12.4666,34.00005 -31.0533,34.00005 z"
               style="font-weight:bold;font-family:'Plus Jakarta Display';-inkscape-font-specification:'Plus Jakarta Display Bold'"
               id="path840" />
            <path
               d="m 2223.1244,-337.29798 c -15.64,0 -28.3334,5.66667 -34.68,17.68002 v -14.96002 h -31.7334 v 123.76019 h 34 v -72.30678 c 0,-14.28002 9.2934,-23.57337 22.6667,-23.57337 13.3734,0 22.6667,9.29335 22.6667,23.57337 v 72.30678 h 34.0001 v -79.56012 c 0,-28.10671 -19.0401,-46.92007 -46.9201,-46.92007 z"
               style="font-weight:bold;font-family:'Plus Jakarta Display';-inkscape-font-specification:'Plus Jakarta Display Bold'"
               id="path842" />
            <path
               d="m 2292.7112,-210.81779 h 35.1334 v -61.2001 h 29.6934 l 34.2267,61.2001 h 39.4401 l -38.5334,-67.32011 c 17.9067,-8.16001 29.24,-24.48003 29.24,-47.60007 0,-35.36005 -24.9334,-53.94675 -59.8401,-53.94675 h -69.3601 z m 35.1334,-91.80014 v -46.46674 h 34.4534 c 14.7334,0 24.48,9.29335 24.48,23.3467 0,13.82669 -9.7466,23.12004 -24.48,23.12004 z"
               style="font-weight:bold;font-family:'Plus Jakarta Display';-inkscape-font-specification:'Plus Jakarta Display Bold'"
               id="path844" />
            <path
               d="m 2520.7379,-334.57798 v 72.30677 c 0,14.28003 -9.2933,23.57337 -22.6667,23.57337 -13.3734,0 -22.6667,-9.29334 -22.6667,-23.57337 v -72.30677 h -34.0001 v 75.25345 c 0,30.37337 19.2667,51.22674 47.6001,51.22674 15.4134,0 27.6534,-6.12001 34.0001,-17.68003 v 14.96003 h 31.7334 v -123.76019 z"
               style="font-weight:bold;font-family:'Plus Jakarta Display';-inkscape-font-specification:'Plus Jakarta Display Bold'"
               id="path846" />
            <path
               d="m 2577.4046,-210.81779 h 34.0001 v -168.86693 h -34.0001 z"
               style="font-weight:bold;font-family:'Plus Jakarta Display';-inkscape-font-specification:'Plus Jakarta Display Bold'"
               id="path848" />
            <path
               d="m 2751.2582,-276.32456 c 0,-34.22672 -26.7467,-60.97342 -61.4267,-60.97342 -35.3601,0 -62.5601,27.4267 -62.5601,64.37343 0,35.81338 25.6133,64.82676 64.8267,64.82676 25.3867,0 45.7868,-12.01335 53.2668,-30.14671 l -27.2001,-12.92002 c -4.76,8.38668 -13.6,13.60002 -25.6133,13.60002 -16.7734,0 -27.8801,-9.97335 -29.9201,-25.61337 h 87.0402 c 1.1333,-3.40001 1.5866,-8.16002 1.5866,-13.14669 z m -87.9468,-11.78668 c 3.4,-14.28003 13.1467,-21.9867 26.5201,-21.9867 14.0533,0 24.0267,8.84001 25.3867,21.9867 z"
               style="font-weight:bold;font-family:'Plus Jakarta Display';-inkscape-font-specification:'Plus Jakarta Display Bold'"
               id="path850" />
            <path
               d="m 2814.9517,-208.09779 c 29.6933,0 50.32,-15.64002 50.32,-38.53339 0,-17.68003 -11.7866,-30.37338 -33.7733,-36.26672 l -22.8934,-6.12001 c -4.08,-1.13334 -12.6934,-3.40001 -12.6934,-10.88002 0,-6.34667 5.8934,-10.20001 15.8667,-10.20001 13.3734,0 24.0267,6.34667 28.1067,17.00002 l 25.3867,-11.78668 c -7.9333,-20.17337 -28.1067,-32.41338 -53.4934,-32.41338 -29.0134,0 -48.7334,15.64002 -48.7334,38.53339 0,17.00002 10.88,30.14671 33.3201,36.04005 l 21.76,5.66668 c 4.3067,1.13333 14.28,3.62667 14.28,11.78668 0,6.80001 -6.8,11.10668 -17.4533,11.10668 -14.0534,0 -25.1601,-7.48001 -31.7334,-21.3067 l -25.1601,11.78669 c 7.7067,22.44003 29.9201,35.58672 56.8935,35.58672 z"
               style="font-weight:bold;font-family:'Plus Jakarta Display';-inkscape-font-specification:'Plus Jakarta Display Bold'"
               id="path852" />
          </g>
        </g>
      </g>
    </g>
  </g>
</svg>
